<?xml version="1.0" encoding="UTF-8"?>
<svg width="30px" height="30px" viewBox="0 0 30 30" version="1.1" xmlns="http://www.w3.org/2000/svg" xmlns:xlink="http://www.w3.org/1999/xlink">
    <title>Camera red@1x</title>
    <defs>
        <linearGradient x1="0%" y1="21.875%" x2="88.3872438%" y2="72.1910125%" id="linearGradient-1">
            <stop stop-color="#5D6476" offset="0%"></stop>
            <stop stop-color="#434856" offset="100%"></stop>
        </linearGradient>
        <rect id="path-2" x="167" y="150" width="1280" height="900" rx="18"></rect>
        <filter x="-9.8%" y="-10.0%" width="121.1%" height="130.0%" filterUnits="objectBoundingBox" id="filter-4">
            <feOffset dx="10" dy="45" in="SourceAlpha" result="shadowOffsetOuter1"></feOffset>
            <feGaussianBlur stdDeviation="37.5" in="shadowOffsetOuter1" result="shadowBlurOuter1"></feGaussianBlur>
            <feColorMatrix values="0 0 0 0 0.109803922   0 0 0 0 0.121568627   0 0 0 0 0.180392157  0 0 0 0.59727382 0" type="matrix" in="shadowBlurOuter1"></feColorMatrix>
        </filter>
        <path d="M22,0 C26.418278,-8.11624501e-16 30,3.581722 30,8 L30,22 C30,26.418278 26.418278,30 22,30 L8,30 C3.581722,30 5.41083001e-16,26.418278 0,22 L0,8 C-5.41083001e-16,3.581722 3.581722,8.11624501e-16 8,0 L22,0 Z M15,9 C14.4477153,9 14,9.44771525 14,10 L14,10 L14,14 L10,14 C9.48716416,14 9.06449284,14.3860402 9.00672773,14.8833789 L9,15 C9,15.5522847 9.44771525,16 10,16 L10,16 L13.999,16 L14,20 C14,20.5128358 14.3860402,20.9355072 14.8833789,20.9932723 L15,21 C15.5522847,21 16,20.5522847 16,20 L16,20 L15.999,16 L20,16 C20.5128358,16 20.9355072,15.6139598 20.9932723,15.1166211 L21,15 C21,14.4477153 20.5522847,14 20,14 L20,14 L16,14 L16,10 C16,9.48716416 15.6139598,9.06449284 15.1166211,9.00672773 Z" id="path-5"></path>
        <filter x="-30.0%" y="-23.3%" width="173.3%" height="173.3%" filterUnits="objectBoundingBox" id="filter-6">
            <feOffset dx="2" dy="4" in="SourceAlpha" result="shadowOffsetOuter1"></feOffset>
            <feGaussianBlur stdDeviation="3" in="shadowOffsetOuter1" result="shadowBlurOuter1"></feGaussianBlur>
            <feColorMatrix values="0 0 0 0 0   0 0 0 0 0.357219877   0 0 0 0 0.791949728  0 0 0 0.495356206 0" type="matrix" in="shadowBlurOuter1"></feColorMatrix>
        </filter>
    </defs>
    <g id="Page-1" stroke="none" stroke-width="1" fill="none" fill-rule="evenodd">
        <g id="Zoom-Redesign----Home" transform="translate(-579.000000, -335.000000)">
            <rect id="Rectangle" fill="url(#linearGradient-1)" opacity="0.0754510789" x="0" y="0" width="1600" height="1200"></rect>
            <g id="Background-Elements" transform="translate(-63.000000, 50.056021)"></g>
            <mask id="mask-3" fill="white">
                <use xlink:href="#path-2"></use>
            </mask>
            <g id="Rectangle">
                <use fill="black" fill-opacity="1" filter="url(#filter-4)" xlink:href="#path-2"></use>
                <use fill="#1C1F2E" fill-rule="evenodd" xlink:href="#path-2"></use>
            </g>
            <g id="Functions" mask="url(#mask-3)">
                <g transform="translate(309.000000, 295.000000)" id="Join-Meeting">
                    <g transform="translate(230.000000, 0.000000)">
                        <rect id="Rectangle-Copy-15" fill="#0E78F9" x="0" y="0" width="200" height="200" rx="14"></rect>
                        <rect id="Rectangle" stroke-opacity="0.349404502" stroke="#FFFFFF" stroke-width="0.5" fill-opacity="0.150513549" fill="#FFFFFF" x="25.25" y="25.25" width="59.5" height="59.5" rx="12"></rect>
                        <g id="Rectangle-11" transform="translate(40.000000, 40.000000)">
                            <use fill="black" fill-opacity="1" filter="url(#filter-6)" xlink:href="#path-5"></use>
                            <use fill="#FFFFFF" fill-rule="evenodd" xlink:href="#path-5"></use>
                        </g>
                    </g>
                </g>
            </g>
        </g>
    </g>
</svg>