<?xml version="1.0" encoding="UTF-8"?>
<svg width="38px" height="24px" viewBox="0 0 38 24" version="1.1" xmlns="http://www.w3.org/2000/svg" xmlns:xlink="http://www.w3.org/1999/xlink">
    <title>Camera @1x</title>
    <defs>
        <linearGradient x1="0%" y1="21.875%" x2="88.3872438%" y2="72.1910125%" id="linearGradient-1">
            <stop stop-color="#5D6476" offset="0%"></stop>
            <stop stop-color="#434856" offset="100%"></stop>
        </linearGradient>
        <rect id="path-2" x="167" y="150" width="1280" height="900" rx="18"></rect>
        <filter x="-9.8%" y="-10.0%" width="121.1%" height="130.0%" filterUnits="objectBoundingBox" id="filter-4">
            <feOffset dx="10" dy="45" in="SourceAlpha" result="shadowOffsetOuter1"></feOffset>
            <feGaussianBlur stdDeviation="37.5" in="shadowOffsetOuter1" result="shadowBlurOuter1"></feGaussianBlur>
            <feColorMatrix values="0 0 0 0 0.109803922   0 0 0 0 0.121568627   0 0 0 0 0.180392157  0 0 0 0.59727382 0" type="matrix" in="shadowBlurOuter1"></feColorMatrix>
        </filter>
        <path d="M24,0 C27.3137085,-6.08718376e-16 30,2.6862915 30,6 L30,18 C30,21.3137085 27.3137085,24 24,24 L6,24 C2.6862915,24 4.05812251e-16,21.3137085 0,18 L0,6 C-4.05812251e-16,2.6862915 2.6862915,6.08718376e-16 6,0 L24,0 Z M7.88888889,16.4285714 L6.33333333,16.4285714 C5.78104858,16.4285714 5.33333333,16.8762867 5.33333333,17.4285714 C5.33333333,17.9808562 5.78104858,18.4285714 6.33333333,18.4285714 L6.33333333,18.4285714 L7.88888889,18.4285714 C8.44117364,18.4285714 8.88888889,17.9808562 8.88888889,17.4285714 C8.88888889,16.8762867 8.44117364,16.4285714 7.88888889,16.4285714 L7.88888889,16.4285714 Z M20.3333333,16.4285714 L11.6666667,16.4285714 C11.1143819,16.4285714 10.6666667,16.8762867 10.6666667,17.4285714 C10.6666667,17.9808562 11.1143819,18.4285714 11.6666667,18.4285714 L11.6666667,18.4285714 L20.3333333,18.4285714 C20.8856181,18.4285714 21.3333333,17.9808562 21.3333333,17.4285714 C21.3333333,16.8762867 20.8856181,16.4285714 20.3333333,16.4285714 L20.3333333,16.4285714 Z" id="path-5"></path>
        <filter x="-30.0%" y="-29.2%" width="173.3%" height="191.7%" filterUnits="objectBoundingBox" id="filter-6">
            <feOffset dx="2" dy="4" in="SourceAlpha" result="shadowOffsetOuter1"></feOffset>
            <feGaussianBlur stdDeviation="3" in="shadowOffsetOuter1" result="shadowBlurOuter1"></feGaussianBlur>
            <feColorMatrix values="0 0 0 0 0.90661798   0 0 0 0 0.330698106   0 0 0 0 0.0406665153  0 0 0 0.570039336 0" type="matrix" in="shadowBlurOuter1"></feColorMatrix>
        </filter>
    </defs>
    <g id="Page-1" stroke="none" stroke-width="1" fill="none" fill-rule="evenodd">
        <g id="Zoom-Redesign----Home" transform="translate(-347.000000, -339.000000)">
            <rect id="Rectangle" fill="url(#linearGradient-1)" opacity="0.0754510789" x="0" y="0" width="1600" height="1200"></rect>
            <g id="Background-Elements" transform="translate(-63.000000, 50.056021)" stroke="#0E78F9" stroke-linecap="round" stroke-linejoin="round" stroke-width="80">
                <line x1="0" y1="439.359584" x2="526.216724" y2="247" id="Path-12"></line>
            </g>
            <mask id="mask-3" fill="white">
                <use xlink:href="#path-2"></use>
            </mask>
            <g id="Rectangle">
                <use fill="black" fill-opacity="1" filter="url(#filter-4)" xlink:href="#path-2"></use>
                <use fill="#1C1F2E" fill-rule="evenodd" xlink:href="#path-2"></use>
            </g>
            <g id="Functions" mask="url(#mask-3)">
                <g transform="translate(309.000000, 295.000000)" id="New-Meeting">
                    <rect id="Rectangle-Copy-15" fill="#FF742E" x="0" y="0" width="200" height="200" rx="14"></rect>
                    <rect id="Rectangle" stroke-opacity="0.349404502" stroke="#FFFFFF" stroke-width="0.5" fill-opacity="0.150513549" fill="#FFFFFF" x="25.25" y="25.25" width="59.5" height="59.5" rx="12"></rect>
                    <g id="Camera-" transform="translate(38.000000, 44.000000)">
                        <path d="M36.5,3.87472586 L36.5,20.136808 L30.5,14.6354443 L30.5,9.29336222 L36.5,3.87472586 Z" id="Rectangle-10" stroke="#FFFFFF" fill="#FFFFFF" stroke-linecap="round" stroke-linejoin="round"></path>
                        <g id="Rectangle-11">
                            <use fill="black" fill-opacity="1" filter="url(#filter-6)" xlink:href="#path-5"></use>
                            <use fill="#FFFFFF" fill-rule="evenodd" xlink:href="#path-5"></use>
                        </g>
                    </g>
                </g>
            </g>
        </g>
    </g>
</svg>