<?xml version="1.0" encoding="UTF-8"?>
<svg width="40px" height="42px" viewBox="0 0 40 42" version="1.1" xmlns="http://www.w3.org/2000/svg" xmlns:xlink="http://www.w3.org/1999/xlink">
    <title>Calendar</title>
    <defs>
        <path d="M6,2 L22,2 C25.3137085,2 28,4.6862915 28,8 L28,25 C28,28.3137085 25.3137085,31 22,31 L6,31 C2.6862915,31 4.05812251e-16,28.3137085 0,25 L0,8 C-4.05812251e-16,4.6862915 2.6862915,2 6,2 Z M8,8.76666667 C9.1045695,8.76666667 10,7.90108385 10,6.83333333 C10,5.76558282 9.1045695,4.9 8,4.9 C6.8954305,4.9 6,5.76558282 6,6.83333333 C6,7.90108385 6.8954305,8.76666667 8,8.76666667 Z M20,8.76666667 C21.1045695,8.76666667 22,7.90108385 22,6.83333333 C22,5.76558282 21.1045695,4.9 20,4.9 C18.8954305,4.9 18,5.76558282 18,6.83333333 C18,7.90108385 18.8954305,8.76666667 20,8.76666667 Z" id="path-1"></path>
        <filter x="-32.1%" y="-24.1%" width="178.6%" height="175.9%" filterUnits="objectBoundingBox" id="filter-2">
            <feOffset dx="2" dy="4" in="SourceAlpha" result="shadowOffsetOuter1"></feOffset>
            <feGaussianBlur stdDeviation="3" in="shadowOffsetOuter1" result="shadowBlurOuter1"></feGaussianBlur>
            <feColorMatrix values="0 0 0 0 0   0 0 0 0 0.357219877   0 0 0 0 0.791949728  0 0 0 0.495356206 0" type="matrix" in="shadowBlurOuter1"></feColorMatrix>
        </filter>
        <path d="M8,7 L8,0" id="path-3"></path>
        <filter x="-400.0%" y="-40.7%" width="800.0%" height="181.4%" filterUnits="objectBoundingBox" id="filter-4">
            <feMorphology radius="1.7" operator="dilate" in="SourceAlpha" result="shadowSpreadOuter1"></feMorphology>
            <feOffset dx="0" dy="2" in="shadowSpreadOuter1" result="shadowOffsetOuter1"></feOffset>
            <feMorphology radius="1" operator="erode" in="SourceAlpha" result="shadowInner"></feMorphology>
            <feOffset dx="0" dy="2" in="shadowInner" result="shadowInner"></feOffset>
            <feComposite in="shadowOffsetOuter1" in2="shadowInner" operator="out" result="shadowOffsetOuter1"></feComposite>
            <feGaussianBlur stdDeviation="1" in="shadowOffsetOuter1" result="shadowBlurOuter1"></feGaussianBlur>
            <feColorMatrix values="0 0 0 0 0   0 0 0 0 0.357219877   0 0 0 0 0.791949728  0 0 0 0.495356206 0" type="matrix" in="shadowBlurOuter1"></feColorMatrix>
        </filter>
        <path d="M20,7 L20,0" id="path-5"></path>
        <filter x="-400.0%" y="-40.7%" width="800.0%" height="181.4%" filterUnits="objectBoundingBox" id="filter-6">
            <feMorphology radius="1.7" operator="dilate" in="SourceAlpha" result="shadowSpreadOuter1"></feMorphology>
            <feOffset dx="0" dy="2" in="shadowSpreadOuter1" result="shadowOffsetOuter1"></feOffset>
            <feMorphology radius="1" operator="erode" in="SourceAlpha" result="shadowInner"></feMorphology>
            <feOffset dx="0" dy="2" in="shadowInner" result="shadowInner"></feOffset>
            <feComposite in="shadowOffsetOuter1" in2="shadowInner" operator="out" result="shadowOffsetOuter1"></feComposite>
            <feGaussianBlur stdDeviation="1" in="shadowOffsetOuter1" result="shadowBlurOuter1"></feGaussianBlur>
            <feColorMatrix values="0 0 0 0 0   0 0 0 0 0.357219877   0 0 0 0 0.791949728  0 0 0 0.495356206 0" type="matrix" in="shadowBlurOuter1"></feColorMatrix>
        </filter>
    </defs>
    <g id="Page-1" stroke="none" stroke-width="1" fill="none" fill-rule="evenodd">
        <g id="Zoom-Redesign----Home" transform="translate(-346.000000, -563.000000)">
            <g id="Functions" transform="translate(309.000000, 295.000000)">
                <g id="Schedule" transform="translate(0.000000, 230.000000)">
                    <g id="Calendar" transform="translate(41.000000, 39.000000)">
                        <g id="Rectangle-11">
                            <use fill="black" fill-opacity="1" filter="url(#filter-2)" xlink:href="#path-1"></use>
                            <use fill="#FFFFFF" fill-rule="evenodd" xlink:href="#path-1"></use>
                        </g>
                        <text id="20" font-family=".AppleSystemUIFont" font-size="14" font-weight="normal" fill="#0E78F9">
                            <tspan x="6" y="27">20</tspan>
                        </text>
                        <g id="Path-2" stroke-linecap="round" stroke-linejoin="round">
                            <use fill="black" fill-opacity="1" filter="url(#filter-4)" xlink:href="#path-3"></use>
                            <path stroke="#FFFFFF" stroke-width="1.7" d="M8,7 L8,0"></path>
                        </g>
                        <g id="Path-2-Copy" stroke-linecap="round" stroke-linejoin="round">
                            <use fill="black" fill-opacity="1" filter="url(#filter-6)" xlink:href="#path-5"></use>
                            <path stroke="#FFFFFF" stroke-width="1.7" d="M20,7 L20,0"></path>
                        </g>
                    </g>
                </g>
            </g>
        </g>
    </g>
</svg>