<?xml version="1.0" encoding="UTF-8"?>
<svg width="42px" height="36px" viewBox="0 0 42 36" version="1.1" xmlns="http://www.w3.org/2000/svg" xmlns:xlink="http://www.w3.org/1999/xlink">
    <title>Camera </title>
    <defs>
        <path d="M24,0 C27.3137085,-6.08718376e-16 30,2.6862915 30,6 L30,18 C30,21.3137085 27.3137085,24 24,24 L6,24 C2.6862915,24 4.05812251e-16,21.3137085 0,18 L0,6 C-4.05812251e-16,2.6862915 2.6862915,6.08718376e-16 6,0 L24,0 Z M7.88888889,16.4285714 L6.33333333,16.4285714 C5.78104858,16.4285714 5.33333333,16.8762867 5.33333333,17.4285714 C5.33333333,17.9808562 5.78104858,18.4285714 6.33333333,18.4285714 L6.33333333,18.4285714 L7.88888889,18.4285714 C8.44117364,18.4285714 8.88888889,17.9808562 8.88888889,17.4285714 C8.88888889,16.8762867 8.44117364,16.4285714 7.88888889,16.4285714 L7.88888889,16.4285714 Z M20.3333333,16.4285714 L11.6666667,16.4285714 C11.1143819,16.4285714 10.6666667,16.8762867 10.6666667,17.4285714 C10.6666667,17.9808562 11.1143819,18.4285714 11.6666667,18.4285714 L11.6666667,18.4285714 L20.3333333,18.4285714 C20.8856181,18.4285714 21.3333333,17.9808562 21.3333333,17.4285714 C21.3333333,16.8762867 20.8856181,16.4285714 20.3333333,16.4285714 L20.3333333,16.4285714 Z" id="path-1"></path>
        <filter x="-30.0%" y="-29.2%" width="173.3%" height="191.7%" filterUnits="objectBoundingBox" id="filter-2">
            <feOffset dx="2" dy="4" in="SourceAlpha" result="shadowOffsetOuter1"></feOffset>
            <feGaussianBlur stdDeviation="3" in="shadowOffsetOuter1" result="shadowBlurOuter1"></feGaussianBlur>
            <feColorMatrix values="0 0 0 0 0.90661798   0 0 0 0 0.330698106   0 0 0 0 0.0406665153  0 0 0 0.570039336 0" type="matrix" in="shadowBlurOuter1"></feColorMatrix>
        </filter>
    </defs>
    <g id="Page-1" stroke="none" stroke-width="1" fill="none" fill-rule="evenodd">
        <g id="Zoom-Redesign----Home" transform="translate(-343.000000, -337.000000)">
            <g id="Functions" transform="translate(309.000000, 295.000000)">
                <g id="Camera-" transform="translate(38.000000, 44.000000)">
                    <path d="M36.5,3.87472586 L36.5,20.136808 L30.5,14.6354443 L30.5,9.29336222 L36.5,3.87472586 Z" id="Rectangle-10" stroke="#FFFFFF" fill="#FFFFFF" stroke-linecap="round" stroke-linejoin="round"></path>
                    <g id="Rectangle-11">
                        <use fill="black" fill-opacity="1" filter="url(#filter-2)" xlink:href="#path-1"></use>
                        <use fill="#FFFFFF" fill-rule="evenodd" xlink:href="#path-1"></use>
                    </g>
                </g>
            </g>
        </g>
    </g>
</svg>