<?xml version="1.0" encoding="UTF-8"?>
<svg width="14px" height="16px" viewBox="0 0 14 16" version="1.1" xmlns="http://www.w3.org/2000/svg" xmlns:xlink="http://www.w3.org/1999/xlink">
    <title>Location</title>
    <g id="Page-1" stroke="none" stroke-width="1" fill="none" fill-rule="evenodd" fill-opacity="0" opacity="0.398390997" stroke-linecap="round" stroke-linejoin="round">
        <g id="Zoom-Redesign----Contacts-2" transform="translate(-867.000000, -830.000000)" fill="#D8D8D8" stroke="#FFFFFF" stroke-width="1.5">
            <g id="Content-w-border" transform="translate(850.000000, 325.000000)">
                <g id="Location" transform="translate(0.000000, 489.000000)">
                    <g id="Oval-2" transform="translate(18.000000, 17.000000)">
                        <path d="M6,0 C9.3137085,0 12,2.6862915 12,6 C12,7.92706388 10.478135,10.4559196 7.43440497,13.5865672 L7.43440497,13.5865672 C7.42434139,13.6014959 7.41182355,13.6140384 7.3991407,13.626413 C6.60854074,14.3977919 5.34230665,14.3822102 4.5709277,13.5916102 L4.5709277,13.5916102 L4.2710724,13.2805257 C1.4236908,10.290713 0,7.86387114 0,6 C0,2.6862915 2.6862915,0 6,0 Z M6,4 C4.8954305,4 4,4.8954305 4,6 C4,7.1045695 4.8954305,8 6,8 C7.1045695,8 8,7.1045695 8,6 C8,4.8954305 7.1045695,4 6,4 Z"></path>
                    </g>
                </g>
            </g>
        </g>
    </g>
</svg>