<?xml version="1.0" encoding="UTF-8"?>
<svg width="13px" height="14px" viewBox="0 0 13 14" version="1.1" xmlns="http://www.w3.org/2000/svg" xmlns:xlink="http://www.w3.org/1999/xlink">
    <title>Path 8</title>
    <g id="Page-1" stroke="none" stroke-width="1" fill="none" fill-rule="evenodd" opacity="0.397646949" stroke-linecap="round" stroke-linejoin="round">
        <g id="Zoom-Redesign----Contacts-2" transform="translate(-869.000000, -503.000000)" stroke="#FFFFFF" stroke-width="1.5">
            <g id="Content-w-border" transform="translate(850.000000, 325.000000)">
                <g id="Start-Button" transform="translate(1.000000, 161.000000)">
                    <path d="M19.0855064,27.0966537 L21.2896342,26.5045575 C21.8023902,26.3668155 22.1588192,25.9020025 22.1588192,25.3710678 C22.1588192,24.8740115 22.5617629,24.4710678 23.0588192,24.4710678 L25.03732,24.4710678 C25.5343763,24.4710678 25.93732,24.8740115 25.93732,25.3710678 C25.93732,25.9020025 26.293749,26.3668155 26.806505,26.5045575 L29.1196929,27.1259506 C29.9167305,27.3396625 30.7365022,26.8690878 30.9540626,26.0730921 C31.2850737,24.8634151 31.1018597,23.929407 30.4044206,23.2710678 C28.9855245,21.9317181 27.4768909,21.4710678 24.0480696,21.4710678 C20.6192483,21.4710678 18.8474189,22.0710678 17.6917187,23.2710678 C17.1341836,23.8499741 16.9800993,24.743067 17.2294655,25.9503466 C17.3959494,26.7618729 18.1891398,27.2842417 19.0005521,27.117204 C19.0290985,27.1113274 19.0574676,27.1046201 19.0855064,27.0966537 Z" id="Path-8" transform="translate(24.113869, 24.471068) rotate(-135.000000) translate(-24.113869, -24.471068) "></path>
                </g>
            </g>
        </g>
    </g>
</svg>