<?xml version="1.0" encoding="UTF-8"?>
<svg width="22px" height="22px" viewBox="0 0 22 22" version="1.1" xmlns="http://www.w3.org/2000/svg" xmlns:xlink="http://www.w3.org/1999/xlink">
    <title>Settings</title>
    <g id="Page-1" stroke="none" stroke-width="1" fill="none" fill-rule="evenodd" fill-opacity="0" opacity="0.404017857" stroke-linecap="round" stroke-linejoin="round">
        <g id="Zoom-Redesign----Home" transform="translate(-198.000000, -984.000000)" fill="#D8D8D8" stroke="#FFFFFF" stroke-width="1.5">
            <g id="Settings" transform="translate(185.000000, 971.000000)">
                <g transform="translate(14.000000, 14.000000)">
                    <path d="M10.3333333,0 C11.2987998,-1.77353318e-16 12.1264459,0.689705088 12.3005464,1.63934426 L12.4363992,2.37777043 C12.8327888,2.50436747 13.2157463,2.66102852 13.5825904,2.84507217 L14.2928265,2.3870606 C15.0844473,1.87632647 16.12516,1.98727922 16.7913104,2.65342966 L17.3329535,3.19507271 C18.000621,3.86274021 18.1103789,4.90640306 17.5962142,5.69835919 L17.1443481,6.39639909 C17.3339124,6.77148117 17.4948076,7.16351905 17.6241532,7.56963208 L18.3564009,7.70370844 C19.30604,7.87780895 19.9957451,8.70545506 19.9957451,9.67092155 L19.9957451,10.3375882 C19.9957451,11.3030547 19.30604,12.1307008 18.3564009,12.3048013 L17.621266,12.4394141 C17.484228,12.867906 17.312055,13.2806887 17.108136,13.6743735 L17.5313448,14.288153 C18.0797335,15.082757 17.9821944,16.1556863 17.2995065,16.8383742 L16.828102,17.3097787 C16.1454141,17.9924666 15.0724848,18.0900057 14.2778808,17.541617 L13.6604506,17.1153304 C13.2952998,17.3035603 12.9137909,17.4645072 12.5186187,17.5954763 L12.3404108,18.4216565 C12.1417939,19.3425605 11.3274435,20 10.3853645,20 L9.61936557,20 C8.67514114,20 7.8595495,19.3396295 7.66312124,18.4160626 L7.48890726,17.5979664 C7.08602493,17.4648884 6.69731402,17.300661 6.32562647,17.108136 L5.70759208,17.5355997 C4.91298813,18.0839883 3.84005881,17.9864493 3.1573709,17.3037614 L2.68596638,16.8323569 C2.00327848,16.149669 1.90573945,15.0767397 2.45412809,14.2821357 L2.88415676,13.6594555 C2.69710003,13.2964555 2.53700388,12.9172945 2.40651513,12.5246194 L1.57408862,12.3446657 C0.653184623,12.1460488 -0.00425488661,11.3316984 -0.00425488661,10.3896194 L-0.00425488661,9.62362046 C-0.00425488661,8.67939603 0.656115626,7.86380438 1.57968247,7.66737613 L2.40088473,7.49238804 C2.52314912,7.12166818 2.67178437,6.76293561 2.84456987,6.41841098 L2.38280571,5.70291857 C1.87207158,4.91129778 1.98302433,3.87058516 2.64917477,3.20443472 L3.19081783,2.66279166 C3.85848533,1.99512416 4.90214817,1.88536625 5.69410431,2.39953088 L6.39639909,2.85565186 C6.76968292,2.66699646 7.15976035,2.50673583 7.56379198,2.37770936 L7.69945355,1.63934426 C7.87355407,0.689705088 8.70120017,6.21442528e-16 9.66666667,0 L10.3333333,0 Z M9.99574511,13 C11.6525994,13 12.9957451,11.6568542 12.9957451,10 C12.9957451,8.34314575 11.6525994,7 9.99574511,7 C8.33889086,7 6.99574511,8.34314575 6.99574511,10 C6.99574511,11.6568542 8.33889086,13 9.99574511,13 Z"></path>
                </g>
            </g>
        </g>
    </g>
</svg>