<?xml version="1.0" encoding="UTF-8"?>
<svg width="18px" height="16px" viewBox="0 0 18 16" version="1.1" xmlns="http://www.w3.org/2000/svg" xmlns:xlink="http://www.w3.org/1999/xlink">
    <title>Rectangle 6</title>
    <g id="Page-1" stroke="none" stroke-width="1" fill="none" fill-rule="evenodd" opacity="0.398251488">
        <g id="Zoom-Redesign----Contacts-2" transform="translate(-1155.000000, -722.000000)" fill-rule="nonzero" stroke="#FFFFFF" stroke-width="1.5">
            <g id="Content-w-border" transform="translate(850.000000, 325.000000)">
                <g id="Work" transform="translate(290.000000, 381.000000)">
                    <path d="M19,19 L29,19 C30.6568542,19 32,20.3431458 32,22 L32,28 C32,29.6568542 30.6568542,31 29,31 L19,31 C17.3431458,31 16,29.6568542 16,28 L16,22 C16,20.3431458 17.3431458,19 19,19 Z M22,17 L26,17 C26.5522847,17 27,17.4477153 27,18 C27,18.5522847 26.5522847,19 26,19 L22,19 C21.4477153,19 21,18.5522847 21,18 C21,17.4477153 21.4477153,17 22,17 Z M32,24 L27,25 L21,25 L16,24 M24,24 C24.5522847,24 25,24.4477153 25,25 L25,26 C25,26.5522847 24.5522847,27 24,27 C23.4477153,27 23,26.5522847 23,26 L23,25 C23,24.4477153 23.4477153,24 24,24 Z" id="Rectangle-6" transform="translate(24.000000, 24.000000) scale(-1, 1) translate(-24.000000, -24.000000) "></path>
                </g>
            </g>
        </g>
    </g>
</svg>